<svg xmlns="http://www.w3.org/2000/svg" width="24" height="24" viewBox="0 0 24 24">
  <g id="icon-profile" transform="translate(-55 -164)">
    <rect id="Retângulo_7" data-name="Retângulo 7" width="24" height="24" transform="translate(55 164)" fill="#fff" opacity="0"/>
    <path id="Caminho_44" data-name="Caminho 44" d="M21.7,13.35l-1,1L18.65,12.3l1-1a.549.549,0,0,1,.77,0l1.28,1.28a.549.549,0,0,1,0,.77M12,18.94l6.06-6.06,2.05,2.05L14.06,21H12V18.94M12,14c-4.42,0-8,1.79-8,4v2h6V18.11l4-4A16.643,16.643,0,0,0,12,14M12,4a4,4,0,1,0,4,4,4,4,0,0,0-4-4Z" transform="translate(54.071 163.5)" />
  </g>
</svg>
