<svg xmlns="http://www.w3.org/2000/svg" width="16" height="16" viewBox="0 0 16 16">
  <g id="icon-copyright" transform="translate(-156 -1004)">
    <g id="Grupo_8" data-name="Grupo 8">
      <rect id="Retângulo_9" data-name="Retângulo 9" width="16" height="16" transform="translate(156 1004)" fill="#7a12f5" opacity="0"/>
      <path id="Caminho_39" data-name="Caminho 39" d="M7.786,8.344A1.739,1.739,0,0,1,8,7.729a1.153,1.153,0,0,1,1.074-.616,1.176,1.176,0,0,1,.823.351,1.287,1.287,0,0,1,.337.838h1.289a2.366,2.366,0,0,0-.215-.931,1.961,1.961,0,0,0-.487-.716,2.8,2.8,0,0,0-3.845.265A3.947,3.947,0,0,0,6.97,11.4a2.761,2.761,0,0,0,3.8.265,2.215,2.215,0,0,0,.544-.659,2.143,2.143,0,0,0,.2-.823H10.235a.871.871,0,0,1-.115.408,1.2,1.2,0,0,1-.243.337,1.3,1.3,0,0,1-.816.286,1.216,1.216,0,0,1-.637-.165A1.009,1.009,0,0,1,8,10.593a3.879,3.879,0,0,1-.215-2.248M9.161,2A7.182,7.182,0,0,0,2,9.161c.38,9.5,13.963,9.5,14.321,0A7.182,7.182,0,0,0,9.161,2m0,12.889a5.729,5.729,0,1,1,5.729-5.729A5.736,5.736,0,0,1,9.161,14.889Z" transform="translate(154.819 1002.857)" />
    </g>
  </g>
</svg>
