<svg xmlns="http://www.w3.org/2000/svg" width="24" height="24" viewBox="0 0 24 24">
  <g id="icon-envelopes" transform="translate(-55 -164)">
    <rect id="Retângulo_7" data-name="Retângulo 7" width="24" height="24" transform="translate(55 164)" fill="#fff" opacity="0"/>
    <path id="Caminho_72" data-name="Caminho 72" d="M19,3H5A2.006,2.006,0,0,0,3,5V19a2.006,2.006,0,0,0,2,2H19a2.006,2.006,0,0,0,2-2V5a2.006,2.006,0,0,0-2-2M9,17H7V10H9v7m4,0H11V7h2V17m4,0H15V13h2Z" transform="translate(55 164)"/>
  </g>
</svg>
