<svg xmlns="http://www.w3.org/2000/svg" width="24" height="24" viewBox="0 0 24 24">
  <g id="icon-envelopes" transform="translate(-55 -164)">
    <rect id="Retângulo_7" data-name="Retângulo 7" width="24" height="24" transform="translate(55 164)" fill="#fff" opacity="0"/>
    <path id="Caminho_42" data-name="Caminho 42" d="M12,.64,8.23,3H5V5L2.97,6.29A1.991,1.991,0,0,0,2,8V18a2,2,0,0,0,2,2H20a1.993,1.993,0,0,0,2-2V8a1.991,1.991,0,0,0-.97-1.71L19,5V3H15.77M7,5H17V9.88L12,13,7,9.88M8,6V7.5h8V6M5,7.38V8.63L4,8m15-.62L20,8l-1,.63M8,8.5V10h8V8.5Z" transform="translate(55 165.68)" />
  </g>
</svg>
