<svg xmlns="http://www.w3.org/2000/svg" width="24" height="24" viewBox="0 0 24 24">
  <g id="icon-smtp" transform="translate(-55 -164)">
    <rect id="Retângulo_7" data-name="Retângulo 7" width="24" height="24" transform="translate(55 164)" fill="#fff" opacity="0"/>
    <path id="Caminho_43" data-name="Caminho 43" d="M12,15a2.984,2.984,0,0,0,2.11-5.11,2.984,2.984,0,1,0-4.22,4.22A2.929,2.929,0,0,0,12,15M12,2a9.632,9.632,0,0,1,7.05,2.95A9.632,9.632,0,0,1,22,12v1.45A3.633,3.633,0,0,1,21,16a3.432,3.432,0,0,1-2.5,1,3.52,3.52,0,0,1-2.94-1.5A4.853,4.853,0,0,1,12,17,5.006,5.006,0,0,1,8.46,8.46,5,5,0,0,1,17,12v1.45a1.516,1.516,0,0,0,.46,1.08A1.417,1.417,0,0,0,18.5,15a1.433,1.433,0,0,0,1.07-.47A1.486,1.486,0,0,0,20,13.45V12a7.689,7.689,0,0,0-2.35-5.65A7.689,7.689,0,0,0,12,4,7.689,7.689,0,0,0,6.35,6.35,7.689,7.689,0,0,0,4,12a7.689,7.689,0,0,0,2.35,5.65A7.689,7.689,0,0,0,12,20h5v2H12a9.632,9.632,0,0,1-7.05-2.95A9.632,9.632,0,0,1,2,12,9.632,9.632,0,0,1,4.95,4.95,9.632,9.632,0,0,1,12,2Z" transform="translate(55 164)"/>
  </g>
</svg>
