<svg id="svgg" xmlns="http://www.w3.org/2000/svg" width="73.732" height="13.034" viewBox="0 0 73.732 13.034">
  <path id="path0" d="M71.394,48.232a4.776,4.776,0,0,0-.112,1.34V50.8h1.172v7.368H71.282V60.68h6.2V58.168h-1.34V54.66l.494-.256c1.475-.763,1.683-.359,1.683,3.273v3h4.856V58.168H82V55.859c0-4.25-2.3-5.98-5.266-3.966l-.595.4V48.12H73.822a14.493,14.493,0,0,0-2.428.112m15.182,3.344a4.777,4.777,0,0,0-3.065,4.5c0,5.581,8.392,6.78,10.136,1.449,1.3-3.969-2.837-7.448-7.07-5.948m13.468.143c-.764.392-.8.4-.8.079s-.126-.329-2.435-.329H94.378l.049,1.3.049,1.3.461-.054.461-.054v4.211h-1V60.68h5.861V58.168h-1V56.416c0-1.9.1-2.1,1.044-2.1.746,0,.8.219.8,3.383V60.68h4.856V58.168h-1.172V56.416c0-1.934.09-2.1,1.143-2.1.677,0,.7.107.7,3.447V60.68h4.856V58.19l-.544-.052-.544-.053-.084-2.6c-.094-2.916-.186-3.183-1.319-3.82-1.164-.655-3.9-.265-4.456.635-.086.139-.254.073-.565-.223a3.491,3.491,0,0,0-3.917-.361m14.89-.158a4.761,4.761,0,0,0-.362,8.879,5.789,5.789,0,0,0,6.726-1.422c.665-.87.681-.852-1.159-1.28l-1.3-.3-.466.446a1.739,1.739,0,0,1-2.71-.208c-.448-.837-.414-.847,3.117-.847h3.29l-.1-1.167a5.075,5.075,0,0,0-7.041-4.1m2.995,2.5c.761.761.578.929-1.012.929-1.479,0-1.681-.116-1.214-.7a1.5,1.5,0,0,1,2.226-.228m-28.448.157c1.008.867.632,3.76-.527,4.051-1.035.26-1.657-.738-1.561-2.5.095-1.736,1.047-2.441,2.088-1.547" transform="translate(-48.34 -48.12)" fill="#1fc299" fill-rule="evenodd"/>
  <g id="Grupo_3309" data-name="Grupo 3309" transform="translate(0 0.258)">
    <path id="Caminho_84" data-name="Caminho 84" d="M65-196.36v1.24h1.261v7.691l-.578-.042-.578-.032v2.469h4.728v-.851l.4.315a3.139,3.139,0,0,0,2.175.672,3.826,3.826,0,0,0,3.3-1.692,4.637,4.637,0,0,0,.893-3.121,4.779,4.779,0,0,0-.809-2.984,3.561,3.561,0,0,0-3.026-1.776,3.339,3.339,0,0,0-2.4.62,3.176,3.176,0,0,1-.483.3,18.9,18.9,0,0,1-.053-2.028v-2.017l-2.417-.01H65Zm7.1,4.592a1.853,1.853,0,0,1,.578.714,3.971,3.971,0,0,1,.01,2.847,1.408,1.408,0,0,1-2.133.578,2.315,2.315,0,0,1-.725-2.028,2.478,2.478,0,0,1,.242-1.366A1.423,1.423,0,0,1,72.1-191.769Z" transform="translate(-65 197.6)" fill="#1fc299"/>
    <path id="Caminho_86" data-name="Caminho 86" d="M186.269-167.687a5.371,5.371,0,0,0-2.952,2.185,5.363,5.363,0,0,0,.053,5.148,5.059,5.059,0,0,0,4.55,2.175,5.514,5.514,0,0,0,3.8-1.3c.6-.536,1.072-1.3.851-1.376-.074-.021-.714-.189-1.418-.368l-1.282-.315-.462.462a1.569,1.569,0,0,1-.9.536,1.789,1.789,0,0,1-2.227-1.471l-.042-.315,3.341-.031,3.331-.021v-.683a4.411,4.411,0,0,0-1.3-3.373,5.078,5.078,0,0,0-2.217-1.261A9.154,9.154,0,0,0,186.269-167.687Zm2.574,2.385a1.644,1.644,0,0,1,.6,1.135c0,.2-.063.21-1.618.21h-1.618l.105-.431A1.655,1.655,0,0,1,188.843-165.3Z" transform="translate(-170.32 170.955)" fill="#1fc299"/>
  </g>
</svg>
