<svg id="svgg" xmlns="http://www.w3.org/2000/svg" width="90" height="13.178" viewBox="0 0 90 13.178">
  <path id="path0" d="M103.03,51.59c.057,1.29.076,1.334.6,1.395l.543.063v7.277h-1.2l.058,1.333.059,1.332,2.418.038,2.418.039V58.719L109.7,60.9l1.778,2.177,1.825-.042,1.825-.042V60.423l-.735-.1c-.6-.081-.916-.312-1.728-1.276l-.993-1.177,1.031-1.043a3.171,3.171,0,0,1,1.482-1.043c.413,0,.451-.088.451-1.058V53.669l-2.714-.106c-3.206-.124-3.01-.2-3.01,1.134,0,1.026.019,1.064.574,1.123l.574.062-1.068,1.144-1.068,1.144V50.257h-4.953l.058,1.333m25.374-.308-1.53.4v.866c0,.792-.042.866-.493.866-.479,0-.494.039-.494,1.382s.014,1.382.494,1.382h.493v2.576c0,3.613.523,4.394,2.961,4.42,1.981.021,2.369-.288,2.369-1.888V59.928l-.642.05-.642.05-.056-1.912-.056-1.912.747-.062.747-.062.06-1.052c.07-1.216-.168-1.612-.963-1.612-.547,0-.56-.025-.617-1.234-.07-1.475-.117-1.493-2.378-.9M72.539,53.433a4.666,4.666,0,0,0-1.234.5c-.417.273-.49.278-.49.031,0-.383-4.742-.651-4.984-.282-.42.638-.067,2.4.494,2.464l.543.063V60.3l-.543.062c-.53.061-.543.093-.543,1.345v1.283H71.9V61.706c0-1.253-.013-1.285-.543-1.345l-.543-.062V58.53c0-1.717.015-1.774.507-1.961,1.133-.431,1.254-.124,1.314,3.316l.054,3.1,2.418.042,2.418.042V61.7c0-1.334-.014-1.374-.493-1.374-.783,0-.771-3.457.013-3.755,1.153-.438,1.27-.129,1.27,3.356v3.14l2.468,0,2.467,0V60.324H82.066V57.807c0-4.137-1.936-5.618-5.094-3.9l-.964.524-.749-.508a2.939,2.939,0,0,0-1.1-.508,2.621,2.621,0,0,1-.614-.078,2.9,2.9,0,0,0-1.006.1m14.4-.021c-1.755.315-3.3,1.519-3.3,2.572,0,.619,2.734.679,3.3.073a1.493,1.493,0,0,1,2.626.87c0,.4-.064.439-.444.3A6.956,6.956,0,0,0,85,57.516c-3.631,2.252-.352,7.005,3.658,5.3.689-.292.79-.294.99-.021.182.249.63.294,2.49.248l2.268-.056.058-1.332.059-1.333h-1.2V58.146c0-4.057-1.976-5.525-6.374-4.734m32.093,0a5.087,5.087,0,0,0-3.638,7.008c1.543,3.4,7.283,3.806,9.509.678.529-.743.547-.726-1.221-1.181l-1.446-.372-.507.486a1.7,1.7,0,0,1-2.818-.551c-.113-.319.107-.345,2.915-.345,3.666,0,3.664,0,3.653-1.057-.033-3.132-3.114-5.362-6.447-4.666m-24.218.143a4.642,4.642,0,0,0-.119,1.357v1.238l.642.062.641.062.056,2.023.056,2.023H94.681l.058,1.333.059,1.332,3.207.039,3.208.04V60.324h-.691c-.661,0-.691-.03-.691-.71a2.473,2.473,0,0,1,2.658-2.645h.7V53.415h-.7a2.851,2.851,0,0,0-2.208,1.049l-.642.607v-.637c0-.351-.111-.671-.247-.713a27.865,27.865,0,0,0-4.569-.162m26.439,2.709c.766.766.62.9-1,.9h-1.486l.3-.574a1.272,1.272,0,0,1,2.189-.323m-32.312,2.89c1.143.4.552,1.757-.765,1.757a.906.906,0,0,1-.656-1.613c.38-.42.574-.439,1.42-.144" transform="translate(-42.374 -50.049)" fill="#fc8024" fill-rule="evenodd"/>
  <g id="Grupo_3310" data-name="Grupo 3310" transform="translate(0 0)">
    <path id="Caminho_84" data-name="Caminho 84" d="M65-196.354v1.246h1.267v7.73l-.581-.042-.581-.032v2.481h4.752v-.855l.4.317a3.155,3.155,0,0,0,2.186.676,3.845,3.845,0,0,0,3.316-1.7,4.661,4.661,0,0,0,.9-3.136,4.8,4.8,0,0,0-.813-3,3.579,3.579,0,0,0-3.041-1.785,3.355,3.355,0,0,0-2.408.623,3.191,3.191,0,0,1-.486.306,18.992,18.992,0,0,1-.053-2.038v-2.027l-2.429-.011H65Zm7.138,4.614a1.862,1.862,0,0,1,.581.718,3.991,3.991,0,0,1,.011,2.862,1.415,1.415,0,0,1-2.144.581,2.326,2.326,0,0,1-.729-2.038,2.49,2.49,0,0,1,.243-1.373A1.43,1.43,0,0,1,72.138-191.74Z" transform="translate(-65 197.6)" fill="#fc8024"/>
    <path id="Caminho_86" data-name="Caminho 86" d="M186.287-167.686a5.4,5.4,0,0,0-2.967,2.2,5.39,5.39,0,0,0,.053,5.174,5.084,5.084,0,0,0,4.572,2.186,5.542,5.542,0,0,0,3.823-1.309c.6-.539,1.077-1.309.855-1.383-.074-.021-.718-.19-1.426-.37l-1.288-.317-.465.465a1.577,1.577,0,0,1-.908.539,1.8,1.8,0,0,1-2.239-1.478l-.042-.317,3.358-.032,3.347-.021v-.686a4.433,4.433,0,0,0-1.309-3.39,5.1,5.1,0,0,0-2.228-1.267A9.2,9.2,0,0,0,186.287-167.686Zm2.587,2.4a1.653,1.653,0,0,1,.6,1.14c0,.2-.063.211-1.626.211h-1.626l.106-.433A1.664,1.664,0,0,1,188.874-165.289Z" transform="translate(-170.258 170.97)" fill="#fc8024"/>
  </g>
</svg>
