<svg id="svgg" xmlns="http://www.w3.org/2000/svg" width="67.376" height="15.97" viewBox="0 0 67.376 15.97">
  <path id="path0" d="M99.974,38.749a7.581,7.581,0,0,0-.029,1.376l.044,1.185.561.046.561.046V48.72h-1.2v2.545h5.081l.042-1.969.042-1.969L106.7,49.3l1.617,1.969H112.2l-.044-1.235-.043-1.235-.749-.052c-.739-.051-.761-.067-1.744-1.292l-1-1.239,1-.982c.786-.776,1.105-.992,1.519-1.029l.524-.047V41.908h-5.839v2.245l.66.047.66.047-1.034,1.042-1.034,1.042L105,42.474l-.075-3.859-2.441-.029c-1.868-.022-2.458.016-2.514.163M73.968,42.106c-.818.413-.839.415-.882.112s-.146-.312-2.477-.351l-2.433-.041v2.7h1.2V52l-.636.046-.636.046v2.4l3.106.034,3.106.033V52.013h-1.2V50.537l.711.4a4.094,4.094,0,0,0,5.553-1.83c2.091-4.186-1.581-8.935-5.413-7m9.254-.221c-1.5.491-2.62,1.542-2.62,2.466,0,.45,2.8.638,3.147.211.9-1.109,2.692-.717,2.692.588v.6l-.487-.124c-3.013-.769-5.427.512-5.427,2.881,0,2.436,2.541,3.755,5.072,2.633.869-.385.842-.382.842-.1,0,.191.383.225,2.545.225H91.53V48.72h-1.2V46.661c0-3.033-.277-3.679-1.915-4.483a10.458,10.458,0,0,0-5.2-.293m15.27.02a4.029,4.029,0,0,0-1.235.886l-.636.671v-.635c0-.967-.073-.994-2.65-.994H91.68v2.695h1.347V48.72H91.68v2.545h6.587V48.72h-1.5V48a2.481,2.481,0,0,1,2.476-2.7l.976-.062L100.18,43.5l-.042-1.741-.524-.034a3.357,3.357,0,0,0-1.123.181m-22.968,3.06c.792.792.6,3.118-.3,3.6-1.266.678-2.432-.918-1.957-2.681.36-1.336,1.414-1.765,2.26-.919m10.445,2.571c1.068.373.394,1.782-.853,1.782a.959.959,0,0,1-.622-1.647c.337-.337.78-.377,1.475-.135" transform="translate(-44.825 -38.58)" fill="#878787" fill-rule="evenodd"/>
  <g id="Grupo_3311" data-name="Grupo 3311" transform="translate(0 0)">
    <path id="Caminho_84" data-name="Caminho 84" d="M65-196.36v1.24h1.261v7.691l-.578-.042-.578-.032v2.469h4.728v-.851l.4.315a3.139,3.139,0,0,0,2.175.672,3.825,3.825,0,0,0,3.3-1.691,4.637,4.637,0,0,0,.893-3.12,4.779,4.779,0,0,0-.809-2.984,3.56,3.56,0,0,0-3.026-1.776,3.338,3.338,0,0,0-2.4.62,3.175,3.175,0,0,1-.483.3,18.9,18.9,0,0,1-.053-2.028v-2.017l-2.416-.01H65Zm7.1,4.591a1.853,1.853,0,0,1,.578.714,3.971,3.971,0,0,1,.01,2.847,1.408,1.408,0,0,1-2.133.578,2.315,2.315,0,0,1-.725-2.028,2.478,2.478,0,0,1,.242-1.366A1.423,1.423,0,0,1,72.1-191.769Z" transform="translate(-65 197.6)" fill="#878787"/>
    <path id="Caminho_86" data-name="Caminho 86" d="M186.269-167.687a5.371,5.371,0,0,0-2.952,2.185,5.363,5.363,0,0,0,.053,5.148,5.059,5.059,0,0,0,4.549,2.175,5.514,5.514,0,0,0,3.8-1.3c.6-.536,1.072-1.3.851-1.376-.074-.021-.714-.189-1.418-.368l-1.282-.315-.462.462a1.568,1.568,0,0,1-.9.536,1.789,1.789,0,0,1-2.227-1.471l-.042-.315,3.341-.032,3.33-.021v-.683a4.41,4.41,0,0,0-1.3-3.372,5.077,5.077,0,0,0-2.217-1.261A9.153,9.153,0,0,0,186.269-167.687Zm2.574,2.385a1.644,1.644,0,0,1,.6,1.135c0,.2-.063.21-1.618.21h-1.618l.105-.431A1.655,1.655,0,0,1,188.843-165.3Z" transform="translate(-170.321 170.954)" fill="#878787"/>
  </g>
</svg>
