<?xml version="1.0" encoding="utf-8"?>
<!-- Generator: Adobe Illustrator 26.0.1, SVG Export Plug-In . SVG Version: 6.00 Build 0)  -->
<svg version="1.1" id="Camada_1" xmlns="http://www.w3.org/2000/svg" xmlns:xlink="http://www.w3.org/1999/xlink" x="0px" y="0px"
	 viewBox="0 0 400 650" style="enable-background:new 0 0 400 650;" xml:space="preserve">
<style type="text/css">
	.st3{fill:#878787;}
	.st4{fill:#E30613;}
	.st5{fill:#009FE3;}
</style>
<path class="st3" d="M400,0v81.57c-17.19-2.34-42.54-6.98-69.54-17.11c-40.37-15.14-40.92-26.22-73.12-33.19
	c-37.6-8.14-64.85,0.92-78.74-10.72c-7.53-6.31-6.51-14.84-4.82-20.55C249.19,0,324.59,0,400,0z"/>
<path class="st4" d="M400,153.57c0,94.62,0,189.23,0,283.85c-19.21-11-73.92-44.86-90.49-95.42c-7.53-22.98-5.42-44.03-5.07-47.23
	c2.59-23.55,12.22-41.03,17.16-49.79c4.62-8.19,3.2-3.97,21.05-30.38c15.24-22.54,18.54-28.98,28.46-38.81
	C381.69,165.31,392.75,157.95,400,153.57z"/>
<path class="st5" d="M400,459.96V650H231.1C188.12,528.97,250.27,469.02,400,459.96z"/>
</svg>
